<svg width="36" height="35" viewBox="0 0 36 35" fill="none" xmlns="http://www.w3.org/2000/svg">
<path d="M10.3253 0H25.0253C30.6253 0 35.1753 4.55 35.1753 10.15V24.85C35.1753 27.5419 34.1059 30.1236 32.2024 32.0271C30.2989 33.9306 27.7172 35 25.0253 35H10.3253C4.72529 35 0.175293 30.45 0.175293 24.85V10.15C0.175293 7.45805 1.24467 4.87636 3.14816 2.97287C5.05165 1.06937 7.63335 0 10.3253 0ZM9.97529 3.5C8.30443 3.5 6.702 4.16375 5.52052 5.34523C4.33904 6.52671 3.67529 8.12914 3.67529 9.8V25.2C3.67529 28.6825 6.49279 31.5 9.97529 31.5H25.3753C27.0462 31.5 28.6486 30.8363 29.8301 29.6548C31.0115 28.4733 31.6753 26.8709 31.6753 25.2V9.8C31.6753 6.3175 28.8578 3.5 25.3753 3.5H9.97529ZM26.8628 6.125C27.443 6.125 27.9994 6.35547 28.4096 6.7657C28.8198 7.17594 29.0503 7.73234 29.0503 8.3125C29.0503 8.89266 28.8198 9.44906 28.4096 9.8593C27.9994 10.2695 27.443 10.5 26.8628 10.5C26.2826 10.5 25.7262 10.2695 25.316 9.8593C24.9058 9.44906 24.6753 8.89266 24.6753 8.3125C24.6753 7.73234 24.9058 7.17594 25.316 6.7657C25.7262 6.35547 26.2826 6.125 26.8628 6.125ZM17.6753 8.75C19.9959 8.75 22.2215 9.67187 23.8625 11.3128C25.5034 12.9538 26.4253 15.1794 26.4253 17.5C26.4253 19.8206 25.5034 22.0462 23.8625 23.6872C22.2215 25.3281 19.9959 26.25 17.6753 26.25C15.3546 26.25 13.1291 25.3281 11.4881 23.6872C9.84717 22.0462 8.92529 19.8206 8.92529 17.5C8.92529 15.1794 9.84717 12.9538 11.4881 11.3128C13.1291 9.67187 15.3546 8.75 17.6753 8.75ZM17.6753 12.25C16.2829 12.25 14.9475 12.8031 13.963 13.7877C12.9784 14.7723 12.4253 16.1076 12.4253 17.5C12.4253 18.8924 12.9784 20.2277 13.963 21.2123C14.9475 22.1969 16.2829 22.75 17.6753 22.75C19.0677 22.75 20.403 22.1969 21.3876 21.2123C22.3722 20.2277 22.9253 18.8924 22.9253 17.5C22.9253 16.1076 22.3722 14.7723 21.3876 13.7877C20.403 12.8031 19.0677 12.25 17.6753 12.25Z" fill="#FBFF20"/>
</svg>
