<svg width="36" height="35" viewBox="0 0 36 35" fill="none" xmlns="http://www.w3.org/2000/svg">
<rect x="0.0986328" width="35" height="35" rx="17.5" fill="#FBFF20"/>
<path d="M21.7248 20.4722L21.1586 21.0318C21.1586 21.0318 19.8109 22.361 16.1336 18.7317C12.4563 15.1023 13.804 13.7731 13.804 13.7731L14.1599 13.4199C15.0397 12.5527 15.1231 11.1592 14.3553 10.1414L12.7873 8.06234C11.8365 6.80233 10.001 6.63556 8.91212 7.71027L6.95836 9.63735C6.41952 10.171 6.05863 10.8603 6.10219 11.6262C6.21419 13.5866 7.10769 17.8027 12.0904 22.7217C17.3755 27.9371 22.3346 28.1447 24.3618 27.9569C25.0039 27.8976 25.5614 27.574 26.0107 27.1293L27.7778 25.385C28.9724 24.2078 28.6364 22.188 27.1083 21.3641L24.7314 20.0806C23.7284 19.5408 22.5088 19.6989 21.7248 20.4722Z" fill="#1A79A3"/>
</svg>
