<svg width="34" height="35" viewBox="0 0 34 35" fill="none" xmlns="http://www.w3.org/2000/svg">
<path fill-rule="evenodd" clip-rule="evenodd" d="M33.9149 17.4456C33.9149 26.8805 26.4185 34.529 17.1713 34.529C7.92409 34.529 0.427734 26.8805 0.427734 17.4456C0.427734 8.01077 7.92409 0.362305 17.1713 0.362305C26.4185 0.362305 33.9149 8.01077 33.9149 17.4456ZM17.7713 12.974C16.1427 13.6651 12.8879 15.0956 8.00682 17.2653C7.2142 17.5869 6.799 17.9015 6.7612 18.2092C6.69732 18.729 7.33543 18.9338 8.20436 19.2125C8.32256 19.2505 8.44503 19.2898 8.57058 19.3314C9.42548 19.6149 10.5755 19.9466 11.1733 19.9598C11.7156 19.9718 12.3208 19.7437 12.9891 19.2755C17.5496 16.1345 19.9038 14.5469 20.0516 14.5127C20.1559 14.4885 20.3004 14.4582 20.3983 14.547C20.4962 14.6358 20.4866 14.8039 20.4762 14.849C20.413 15.124 17.9082 17.4999 16.6119 18.7294C16.2078 19.1128 15.9212 19.3846 15.8626 19.4467C15.7313 19.5858 15.5976 19.7174 15.469 19.8439C14.6748 20.6251 14.0792 21.2109 15.502 22.1675C16.1857 22.6272 16.7328 23.0073 17.2786 23.3866C17.8747 23.8008 18.4693 24.2139 19.2386 24.7284C19.4346 24.8595 19.6217 24.9956 19.8041 25.1282C20.4978 25.6328 21.121 26.0862 21.891 26.0139C22.3384 25.9719 22.8006 25.5426 23.0353 24.2624C23.59 21.2369 24.6803 14.6817 24.9322 11.9804C24.9543 11.7437 24.9265 11.4408 24.9042 11.3079C24.8819 11.1749 24.8353 10.9855 24.6659 10.8452C24.4653 10.6791 24.1556 10.6441 24.0171 10.6466C23.3874 10.6579 22.4212 11.0007 17.7713 12.974Z" fill="#FBFF20"/>
</svg>
