<svg width="31" height="34" viewBox="0 0 31 34" fill="none" xmlns="http://www.w3.org/2000/svg">
<path d="M23.9763 5.32667C22.6685 3.85262 21.9477 1.95959 21.9483 0H16.0363V23.4222C15.9907 24.6897 15.4486 25.8903 14.5243 26.7711C13.6 27.6519 12.3656 28.1443 11.0809 28.1444C8.36407 28.1444 6.10642 25.9533 6.10642 23.2333C6.10642 19.9844 9.28244 17.5478 12.5541 18.5489V12.58C5.95335 11.7111 0.175293 16.7733 0.175293 23.2333C0.175293 29.5233 5.45591 34 11.0618 34C17.0694 34 21.9483 29.1833 21.9483 23.2333V11.3522C24.3456 13.0519 27.2238 13.9639 30.1753 13.9589V8.12222C30.1753 8.12222 26.5784 8.29222 23.9763 5.32667Z" fill="#FBFF20"/>
</svg>
