<svg width="34" height="37" viewBox="0 0 34 37" fill="none" xmlns="http://www.w3.org/2000/svg">
<path fill-rule="evenodd" clip-rule="evenodd" d="M25.6401 1.83767C19.9497 0.600984 14.0486 0.600984 8.35816 1.83767L7.74502 1.96956C6.14436 2.31749 4.67425 3.09002 3.49799 4.20134C2.32173 5.31265 1.48537 6.71924 1.08182 8.26485C-0.360608 13.7909 -0.360608 19.5796 1.08182 25.1056C1.46667 26.5797 2.24554 27.9286 3.33948 29.0157C4.43343 30.1027 5.80354 30.8892 7.31093 31.2954L8.15197 36.1769C8.17882 36.3319 8.24792 36.4771 8.35207 36.5973C8.45623 36.7176 8.59163 36.8084 8.74418 36.8605C8.89673 36.9126 9.06085 36.9239 9.21945 36.8934C9.37805 36.8629 9.52532 36.7915 9.64595 36.6869L14.5855 32.391C18.2934 32.611 22.0148 32.3227 25.6401 31.5346L26.2551 31.4027C27.8558 31.0548 29.3259 30.2822 30.5021 29.1709C31.6784 28.0596 32.5147 26.653 32.9183 25.1074C34.3606 19.5814 34.3606 13.7926 32.9183 8.26661C32.5146 6.72078 31.678 5.31403 30.5014 4.2027C29.3248 3.09136 27.8543 2.31896 26.2533 1.97132L25.6401 1.83767ZM9.88469 8.12242C9.54854 8.07485 9.20577 8.14063 8.91343 8.30882H8.88811C8.20985 8.69568 7.59852 9.18277 7.07761 9.75603C6.64353 10.2431 6.4084 10.7355 6.3469 11.2103C6.31073 11.4916 6.33605 11.7765 6.42106 12.0455L6.45362 12.0631C6.94196 13.4576 7.57862 14.7993 8.35635 16.0619C9.35918 17.8353 10.5933 19.4754 12.028 20.9416L12.0714 21.0014L12.1401 21.0506L12.1817 21.0981L12.2324 21.1403C13.7457 22.5394 15.4367 23.7449 17.2641 24.7276C19.3532 25.8337 20.621 26.3559 21.3825 26.574V26.5845C21.605 26.6513 21.8075 26.6812 22.0119 26.6812C22.6604 26.6346 23.2742 26.3784 23.7555 25.9532C24.3433 25.4468 24.8407 24.8507 25.2278 24.1877V24.1754C25.5913 23.5072 25.4683 22.8777 24.9438 22.4504C23.8902 21.5554 22.751 20.7604 21.5417 20.0764C20.7314 19.6491 19.9084 19.9076 19.5756 20.3402L18.8648 21.2124C18.4995 21.645 17.8375 21.5852 17.8375 21.5852L17.8194 21.5958C12.8799 20.3701 11.5613 15.508 11.5613 15.508C11.5613 15.508 11.4998 14.8468 11.9574 14.5092L12.8473 13.8128C13.2742 13.4752 13.5708 12.6768 13.1132 11.889C12.4143 10.7122 11.5983 9.60494 10.6769 8.58314C10.4759 8.34266 10.1941 8.17888 9.88107 8.12066L9.88469 8.12242ZM18.23 6.00875C17.9901 6.00875 17.7601 6.10138 17.5905 6.26627C17.4209 6.43116 17.3256 6.65479 17.3256 6.88798C17.3256 7.12116 17.4209 7.3448 17.5905 7.50969C17.7601 7.67458 17.9901 7.76721 18.23 7.76721C20.518 7.76721 22.4171 8.49345 23.9201 9.88616C24.6924 10.6476 25.2947 11.5497 25.689 12.5379C26.0851 13.5279 26.2659 14.5848 26.2189 15.6434C26.2139 15.7588 26.2324 15.8741 26.2732 15.9826C26.3141 16.0912 26.3765 16.1908 26.4569 16.2759C26.6194 16.4477 26.8454 16.5497 27.0853 16.5595C27.3251 16.5693 27.5592 16.4861 27.7359 16.3281C27.9126 16.1701 28.0175 15.9504 28.0276 15.7172C28.0837 14.415 27.8614 13.1157 27.3747 11.9014C26.8859 10.6812 26.1447 9.5716 25.197 8.64117L25.1789 8.62358C23.3142 6.89149 20.9538 6.00875 18.23 6.00875ZM18.1685 8.89966C17.9286 8.89966 17.6986 8.99229 17.529 9.15718C17.3594 9.32207 17.2641 9.5457 17.2641 9.77889C17.2641 10.0121 17.3594 10.2357 17.529 10.4006C17.6986 10.5655 17.9286 10.6581 18.1685 10.6581H18.1992C19.8487 10.7724 21.0497 11.307 21.8907 12.1845C22.7535 13.0883 23.2002 14.212 23.1659 15.6012C23.1603 15.8343 23.2503 16.0601 23.416 16.2288C23.5817 16.3975 23.8096 16.4952 24.0494 16.5006C24.2893 16.506 24.5215 16.4185 24.695 16.2574C24.8685 16.0963 24.969 15.8748 24.9745 15.6416C25.018 13.8181 24.4139 12.2443 23.2165 10.9887V10.9852C21.992 9.70855 20.3118 9.0333 18.2896 8.90142L18.2589 8.8979L18.1685 8.89966ZM18.1341 11.8451C18.0131 11.8347 17.8911 11.8481 17.7756 11.8846C17.66 11.921 17.5532 11.9797 17.4615 12.0572C17.3698 12.1347 17.295 12.2293 17.2418 12.3355C17.1885 12.4417 17.1578 12.5572 17.1515 12.6752C17.1452 12.7931 17.1634 12.9111 17.205 13.0221C17.2466 13.1331 17.3108 13.2348 17.3937 13.3211C17.4767 13.4074 17.5766 13.4766 17.6877 13.5245C17.7987 13.5724 17.9186 13.5981 18.0401 13.6C18.7961 13.6387 19.279 13.8603 19.5829 14.1575C19.8885 14.4564 20.1164 14.9365 20.158 15.6873C20.1603 15.8053 20.1869 15.9217 20.2364 16.0294C20.2859 16.1372 20.3572 16.2341 20.4461 16.3146C20.5349 16.395 20.6395 16.4571 20.7536 16.4974C20.8677 16.5377 20.989 16.5552 21.1102 16.549C21.2314 16.5427 21.3501 16.5128 21.4591 16.461C21.5682 16.4092 21.6654 16.3366 21.745 16.2475C21.8246 16.1584 21.8849 16.0546 21.9224 15.9424C21.9599 15.8301 21.9737 15.7117 21.9631 15.5941C21.9052 14.539 21.5652 13.6071 20.8688 12.9213C20.1689 12.2355 19.2157 11.9014 18.1341 11.8451Z" fill="#FBFF20"/>
</svg>
