<svg width="36" height="35" viewBox="0 0 36 35" fill="none" xmlns="http://www.w3.org/2000/svg">
<path d="M18.2019 0.945312C8.78715 0.945312 1.1252 8.47483 1.12188 17.7284C1.11967 20.6876 1.90755 23.5756 3.40143 26.1193L0.978027 34.8163L10.0332 32.4826C12.552 33.8269 15.3527 34.5281 18.1953 34.5261H18.2019C27.6167 34.5261 35.2786 26.9955 35.282 17.7419C35.2842 13.2597 33.5092 9.04047 30.2835 5.86902C27.059 2.69644 22.771 0.946442 18.2019 0.945312ZM18.2019 31.6911H18.1964C15.649 31.6911 13.1504 31.0182 10.9704 29.7469L10.4503 29.4443L5.07901 30.8285L6.51313 25.6802L6.17563 25.1529C4.75799 22.9469 4.00334 20.3662 4.00452 17.7284C4.00784 10.0363 10.3773 3.78031 18.2075 3.78031C21.9986 3.78144 25.5629 5.23451 28.2441 7.8708C30.9254 10.5071 32.4004 14.0127 32.3982 17.7408C32.3949 25.4329 26.0276 31.6911 18.2019 31.6911ZM25.9889 21.2419C25.5618 21.0331 23.4637 20.0181 23.072 19.8769C22.6813 19.7381 22.397 19.6658 22.1126 20.0858C21.8293 20.5058 21.0104 21.4508 20.7625 21.7297C20.5125 22.0097 20.2635 22.0435 19.8363 21.8347C19.4092 21.6247 18.0337 21.1821 16.4048 19.7527C15.1356 18.6418 14.2791 17.2689 14.0301 16.8477C13.7811 16.4289 14.0036 16.2019 14.2171 15.9931C14.4086 15.8068 14.6443 15.5042 14.8567 15.2592C15.0692 15.0142 15.14 14.8392 15.2839 14.5592C15.4255 14.2803 15.3547 14.0342 15.2474 13.8253C15.14 13.6142 14.288 11.5503 13.9305 10.7114C13.5853 9.89402 13.2334 10.0035 12.9711 9.98999C12.7221 9.9787 12.4389 9.97531 12.1523 9.97531C11.8701 9.97531 11.4064 10.0803 11.0147 10.5003C10.6241 10.9203 9.52081 11.9342 9.52081 13.9981C9.52081 16.0631 11.0501 18.0569 11.2637 18.3369C11.4772 18.6158 14.2736 22.8531 18.5549 24.6708C19.573 25.101 20.3675 25.3595 20.9883 25.5537C22.0108 25.8732 22.9414 25.8269 23.6762 25.7197C24.495 25.5989 26.2014 24.7058 26.5555 23.7269C26.9118 22.7481 26.9118 21.9081 26.8056 21.7331C26.7015 21.5581 26.416 21.4531 25.9889 21.2419Z" fill="#FBFF20"/>
</svg>
