<svg xmlns="http://www.w3.org/2000/svg" xmlns:xlink="http://www.w3.org/1999/xlink" width="400" zoomAndPan="magnify" viewBox="0 0 300 74.999997" height="100" preserveAspectRatio="xMidYMid meet" version="1.0"><defs><g/><clipPath id="3646f6df4c"><path d="M 97 36 L 136.449219 36 L 136.449219 72.210938 L 97 72.210938 Z M 97 36 " clip-rule="nonzero"/></clipPath><clipPath id="f15fc40724"><path d="M 96 2.460938 L 111 2.460938 L 111 47 L 96 47 Z M 96 2.460938 " clip-rule="nonzero"/></clipPath><clipPath id="c8b0b7dd44"><path d="M 95.949219 2.460938 L 111 2.460938 L 111 47 L 95.949219 47 Z M 95.949219 2.460938 " clip-rule="nonzero"/></clipPath><clipPath id="efc6ba3d33"><path d="M 97 36 L 136.449219 36 L 136.449219 72.210938 L 97 72.210938 Z M 97 36 " clip-rule="nonzero"/></clipPath></defs><g clip-path="url(#3646f6df4c)"><path fill="#5f666a" d="M 112.5 36.269531 L 97.875 50.894531 L 97.875 72.539062 L 136.269531 72.539062 L 136.269531 57.910156 L 112.5 57.910156 Z M 112.5 36.269531 " fill-opacity="1" fill-rule="nonzero"/></g><g clip-path="url(#f15fc40724)"><path fill="#5f666a" d="M 110.78125 2.660156 L 96.15625 2.660156 L 96.15625 46.839844 L 110.78125 32.210938 Z M 110.78125 2.660156 " fill-opacity="1" fill-rule="nonzero"/></g><g clip-path="url(#c8b0b7dd44)"><path fill="#e6e6e6" d="M 110.578125 2.460938 L 95.953125 2.460938 L 95.953125 46.636719 L 110.578125 32.007812 Z M 110.578125 2.460938 " fill-opacity="1" fill-rule="nonzero"/></g><g clip-path="url(#efc6ba3d33)"><path fill="#11ccf5" d="M 112.300781 36.066406 L 97.671875 50.691406 L 97.671875 72.335938 L 136.066406 72.335938 L 136.066406 57.707031 L 112.300781 57.707031 Z M 112.300781 36.066406 " fill-opacity="1" fill-rule="nonzero"/></g><g fill="#5f666a" fill-opacity="1"><g transform="translate(17.654724, 52.363979)"><g><path d="M 32.109375 -35.5625 L 17.359375 -20.0625 L 31.25 -7.203125 L 31.25 2.375 L 10 -17.78125 L 10 0 L 2.84375 0 L 2.84375 -35.5625 L 10 -35.5625 L 10 -21.671875 L 22.953125 -35.5625 Z M 32.109375 -35.5625 "/></g></g></g><g fill="#5f666a" fill-opacity="1"><g transform="translate(50.948044, 52.363979)"><g><path d="M 28.875 0 L 26.359375 -6.734375 L 10.296875 -6.734375 L 7.78125 0 L 0.046875 0 L 14.328125 -35.5625 L 22.328125 -35.5625 L 36.609375 0 Z M 12.46875 -12.609375 L 24.1875 -12.609375 L 18.359375 -28.3125 Z M 12.46875 -12.609375 "/></g></g></g><g fill="#ffffff" fill-opacity="1"><g transform="translate(17.445117, 52.154372)"><g><path d="M 32.109375 -35.5625 L 17.359375 -20.0625 L 31.25 -7.203125 L 31.25 2.375 L 10 -17.78125 L 10 0 L 2.84375 0 L 2.84375 -35.5625 L 10 -35.5625 L 10 -21.671875 L 22.953125 -35.5625 Z M 32.109375 -35.5625 "/></g></g></g><g fill="#ffffff" fill-opacity="1"><g transform="translate(50.738438, 52.154372)"><g><path d="M 28.875 0 L 26.359375 -6.734375 L 10.296875 -6.734375 L 7.78125 0 L 0.046875 0 L 14.328125 -35.5625 L 22.328125 -35.5625 L 36.609375 0 Z M 12.46875 -12.609375 L 24.1875 -12.609375 L 18.359375 -28.3125 Z M 12.46875 -12.609375 "/></g></g></g><g fill="#5f666a" fill-opacity="1"><g transform="translate(87.663683, 52.363979)"><g/></g></g><g fill="#5f666a" fill-opacity="1"><g transform="translate(99.283146, 52.363979)"><g/></g></g><g fill="#5f666a" fill-opacity="1"><g transform="translate(110.902608, 52.363979)"><g/></g></g><g fill="#ffffff" fill-opacity="1"><g transform="translate(87.454076, 52.154372)"><g/></g></g><g fill="#ffffff" fill-opacity="1"><g transform="translate(99.073539, 52.154372)"><g/></g></g><g fill="#ffffff" fill-opacity="1"><g transform="translate(110.693002, 52.154372)"><g/></g></g><g fill="#5f666a" fill-opacity="1"><g transform="translate(122.529732, 52.363979)"><g><path d="M 28.875 0 L 26.359375 -6.734375 L 10.296875 -6.734375 L 7.78125 0 L 0.046875 0 L 14.328125 -35.5625 L 22.328125 -35.5625 L 36.609375 0 Z M 12.46875 -12.609375 L 24.1875 -12.609375 L 18.359375 -28.3125 Z M 12.46875 -12.609375 "/></g></g></g><g fill="#5f666a" fill-opacity="1"><g transform="translate(159.237755, 52.363979)"><g><path d="M 22.671875 -18.359375 C 24.722656 -17.722656 26.34375 -16.675781 27.53125 -15.21875 C 28.71875 -13.769531 29.3125 -11.921875 29.3125 -9.671875 C 29.3125 -6.703125 28.320312 -4.347656 26.34375 -2.609375 C 24.363281 -0.867188 21.875 0 18.875 0 L 2.84375 0 L 2.84375 -35.5625 L 16.125 -35.5625 C 19.15625 -35.5625 21.664062 -34.675781 23.65625 -32.90625 C 25.65625 -31.132812 26.65625 -28.75 26.65625 -25.75 C 26.65625 -22.332031 25.328125 -19.867188 22.671875 -18.359375 Z M 18.28125 -21.96875 C 19.113281 -22.84375 19.53125 -23.863281 19.53125 -25.03125 C 19.53125 -26.207031 19.113281 -27.222656 18.28125 -28.078125 C 17.445312 -28.929688 16.441406 -29.359375 15.265625 -29.359375 L 9.953125 -29.359375 L 9.953125 -20.671875 L 15.265625 -20.671875 C 16.441406 -20.671875 17.445312 -21.101562 18.28125 -21.96875 Z M 17.828125 -6.265625 C 19.023438 -6.265625 20.039062 -6.691406 20.875 -7.546875 C 21.71875 -8.398438 22.140625 -9.410156 22.140625 -10.578125 C 22.140625 -11.742188 21.71875 -12.753906 20.875 -13.609375 C 20.039062 -14.460938 19.023438 -14.890625 17.828125 -14.890625 L 9.953125 -14.890625 L 9.953125 -6.265625 Z M 17.828125 -6.265625 "/></g></g></g><g fill="#5f666a" fill-opacity="1"><g transform="translate(190.254613, 52.363979)"><g><path d="M 28.875 0 L 26.359375 -6.734375 L 10.296875 -6.734375 L 7.78125 0 L 0.046875 0 L 14.328125 -35.5625 L 22.328125 -35.5625 L 36.609375 0 Z M 12.46875 -12.609375 L 24.1875 -12.609375 L 18.359375 -28.3125 Z M 12.46875 -12.609375 "/></g></g></g><g fill="#ffffff" fill-opacity="1"><g transform="translate(122.320125, 52.154372)"><g><path d="M 28.875 0 L 26.359375 -6.734375 L 10.296875 -6.734375 L 7.78125 0 L 0.046875 0 L 14.328125 -35.5625 L 22.328125 -35.5625 L 36.609375 0 Z M 12.46875 -12.609375 L 24.1875 -12.609375 L 18.359375 -28.3125 Z M 12.46875 -12.609375 "/></g></g></g><g fill="#ffffff" fill-opacity="1"><g transform="translate(159.028148, 52.154372)"><g><path d="M 22.671875 -18.359375 C 24.722656 -17.722656 26.34375 -16.675781 27.53125 -15.21875 C 28.71875 -13.769531 29.3125 -11.921875 29.3125 -9.671875 C 29.3125 -6.703125 28.320312 -4.347656 26.34375 -2.609375 C 24.363281 -0.867188 21.875 0 18.875 0 L 2.84375 0 L 2.84375 -35.5625 L 16.125 -35.5625 C 19.15625 -35.5625 21.664062 -34.675781 23.65625 -32.90625 C 25.65625 -31.132812 26.65625 -28.75 26.65625 -25.75 C 26.65625 -22.332031 25.328125 -19.867188 22.671875 -18.359375 Z M 18.28125 -21.96875 C 19.113281 -22.84375 19.53125 -23.863281 19.53125 -25.03125 C 19.53125 -26.207031 19.113281 -27.222656 18.28125 -28.078125 C 17.445312 -28.929688 16.441406 -29.359375 15.265625 -29.359375 L 9.953125 -29.359375 L 9.953125 -20.671875 L 15.265625 -20.671875 C 16.441406 -20.671875 17.445312 -21.101562 18.28125 -21.96875 Z M 17.828125 -6.265625 C 19.023438 -6.265625 20.039062 -6.691406 20.875 -7.546875 C 21.71875 -8.398438 22.140625 -9.410156 22.140625 -10.578125 C 22.140625 -11.742188 21.71875 -12.753906 20.875 -13.609375 C 20.039062 -14.460938 19.023438 -14.890625 17.828125 -14.890625 L 9.953125 -14.890625 L 9.953125 -6.265625 Z M 17.828125 -6.265625 "/></g></g></g><g fill="#ffffff" fill-opacity="1"><g transform="translate(190.045007, 52.154372)"><g><path d="M 28.875 0 L 26.359375 -6.734375 L 10.296875 -6.734375 L 7.78125 0 L 0.046875 0 L 14.328125 -35.5625 L 22.328125 -35.5625 L 36.609375 0 Z M 12.46875 -12.609375 L 24.1875 -12.609375 L 18.359375 -28.3125 Z M 12.46875 -12.609375 "/></g></g></g><g fill="#5f666a" fill-opacity="1"><g transform="translate(234.689264, 52.167818)"><g><path d="M 17.046875 0.5625 C 14.304688 0.5625 11.882812 0.0351562 9.78125 -1.015625 C 7.675781 -2.066406 6.046875 -3.539062 4.890625 -5.4375 C 3.734375 -7.34375 3.15625 -9.566406 3.15625 -12.109375 L 3.15625 -23.515625 C 3.15625 -26.066406 3.734375 -28.289062 4.890625 -30.1875 C 6.046875 -32.082031 7.675781 -33.554688 9.78125 -34.609375 C 11.882812 -35.660156 14.304688 -36.1875 17.046875 -36.1875 C 19.796875 -36.1875 22.222656 -35.660156 24.328125 -34.609375 C 26.429688 -33.554688 28.0625 -32.070312 29.21875 -30.15625 C 30.375 -28.238281 30.953125 -26.023438 30.953125 -23.515625 L 30.953125 -12.109375 C 30.953125 -9.597656 30.375 -7.382812 29.21875 -5.46875 C 28.0625 -3.550781 26.429688 -2.066406 24.328125 -1.015625 C 22.222656 0.0351562 19.796875 0.5625 17.046875 0.5625 Z M 17.046875 -7.4375 C 18.472656 -7.4375 19.601562 -7.867188 20.4375 -8.734375 C 21.269531 -9.597656 21.6875 -10.757812 21.6875 -12.21875 L 21.6875 -23.46875 C 21.6875 -24.925781 21.269531 -26.085938 20.4375 -26.953125 C 19.601562 -27.816406 18.472656 -28.25 17.046875 -28.25 C 15.628906 -28.25 14.503906 -27.816406 13.671875 -26.953125 C 12.835938 -26.085938 12.421875 -24.925781 12.421875 -23.46875 L 12.421875 -12.21875 C 12.421875 -10.757812 12.835938 -9.597656 13.671875 -8.734375 C 14.503906 -7.867188 15.628906 -7.4375 17.046875 -7.4375 Z M 17.046875 -7.4375 "/></g></g></g><g fill="#5f666a" fill-opacity="1"><g transform="translate(268.794676, 52.167818)"><g><path d="M 15.0625 -35.984375 L 15.0625 0 L 6 0 L 6 -25.34375 L 0.5625 -24.1875 L 0.5625 -32.28125 L 14.96875 -35.984375 Z M 15.0625 -35.984375 "/></g></g></g><g fill="#11ccf5" fill-opacity="1"><g transform="translate(234.464249, 51.942796)"><g><path d="M 17.046875 0.5625 C 14.304688 0.5625 11.882812 0.0351562 9.78125 -1.015625 C 7.675781 -2.066406 6.046875 -3.539062 4.890625 -5.4375 C 3.734375 -7.34375 3.15625 -9.566406 3.15625 -12.109375 L 3.15625 -23.515625 C 3.15625 -26.066406 3.734375 -28.289062 4.890625 -30.1875 C 6.046875 -32.082031 7.675781 -33.554688 9.78125 -34.609375 C 11.882812 -35.660156 14.304688 -36.1875 17.046875 -36.1875 C 19.796875 -36.1875 22.222656 -35.660156 24.328125 -34.609375 C 26.429688 -33.554688 28.0625 -32.070312 29.21875 -30.15625 C 30.375 -28.238281 30.953125 -26.023438 30.953125 -23.515625 L 30.953125 -12.109375 C 30.953125 -9.597656 30.375 -7.382812 29.21875 -5.46875 C 28.0625 -3.550781 26.429688 -2.066406 24.328125 -1.015625 C 22.222656 0.0351562 19.796875 0.5625 17.046875 0.5625 Z M 17.046875 -7.4375 C 18.472656 -7.4375 19.601562 -7.867188 20.4375 -8.734375 C 21.269531 -9.597656 21.6875 -10.757812 21.6875 -12.21875 L 21.6875 -23.46875 C 21.6875 -24.925781 21.269531 -26.085938 20.4375 -26.953125 C 19.601562 -27.816406 18.472656 -28.25 17.046875 -28.25 C 15.628906 -28.25 14.503906 -27.816406 13.671875 -26.953125 C 12.835938 -26.085938 12.421875 -24.925781 12.421875 -23.46875 L 12.421875 -12.21875 C 12.421875 -10.757812 12.835938 -9.597656 13.671875 -8.734375 C 14.503906 -7.867188 15.628906 -7.4375 17.046875 -7.4375 Z M 17.046875 -7.4375 "/></g></g></g><g fill="#11ccf5" fill-opacity="1"><g transform="translate(268.569662, 51.942796)"><g><path d="M 15.0625 -35.984375 L 15.0625 0 L 6 0 L 6 -25.34375 L 0.5625 -24.1875 L 0.5625 -32.28125 L 14.96875 -35.984375 Z M 15.0625 -35.984375 "/></g></g></g></svg>