<svg width="65" height="56" viewBox="0 0 65 56" fill="none" xmlns="http://www.w3.org/2000/svg">
<path d="M13.818 4.35395C12.4618 4.35395 11.1611 4.89719 10.2021 5.86416C9.24312 6.83113 8.70437 8.14263 8.70437 9.51013C8.70437 10.8776 9.24312 12.1891 10.2021 13.1561C11.1611 14.1231 12.4618 14.6663 13.818 14.6663C15.1742 14.6663 16.4749 14.1231 17.4339 13.1561C18.3929 12.1891 18.9316 10.8776 18.9316 9.51013C18.9316 8.14263 18.3929 6.83113 17.4339 5.86416C16.4749 4.89719 15.1742 4.35395 13.818 4.35395ZM5.29528 9.51013C5.29528 7.23096 6.1932 5.04514 7.79153 3.43352C9.38985 1.8219 11.5576 0.916504 13.818 0.916504C16.0784 0.916504 18.2462 1.8219 19.8445 3.43352C21.4428 5.04514 22.3407 7.23096 22.3407 9.51013C22.3407 11.7893 21.4428 13.9751 19.8445 15.5867C18.2462 17.1984 16.0784 18.1038 13.818 18.1038C11.5576 18.1038 9.38985 17.1984 7.79153 15.5867C6.1932 13.9751 5.29528 11.7893 5.29528 9.51013ZM4.443 21.5412C2.09073 21.5412 0.181641 23.4662 0.181641 25.838V42.1659C0.181641 45.8126 1.61832 49.3099 4.17564 51.8885C6.73295 54.4671 10.2014 55.9157 13.818 55.9157C17.4346 55.9157 20.9031 54.4671 23.4604 51.8885C26.0177 49.3099 27.4544 45.8126 27.4544 42.1659V25.838C27.4544 23.4662 25.5453 21.5412 23.193 21.5412H4.443ZM3.59073 25.838C3.59073 25.6101 3.68052 25.3915 3.84036 25.2304C4.00019 25.0692 4.21697 24.9787 4.443 24.9787H23.193C23.419 24.9787 23.6358 25.0692 23.7957 25.2304C23.9555 25.3915 24.0453 25.6101 24.0453 25.838V42.1659C24.0453 44.9009 22.9678 47.5239 21.0498 49.4578C19.1318 51.3918 16.5304 52.4782 13.818 52.4782C11.1056 52.4782 8.50422 51.3918 6.58623 49.4578C4.66824 47.5239 3.59073 44.9009 3.59073 42.1659V25.838Z" fill="#FF7A00"/>
<path d="M43.8191 27.652V26.652H42.8191H34.0203L48.2289 8.02127L62.4465 26.652H53.6484H52.6484V27.652V47.9315H43.8191V27.652Z" stroke="#FF7A00" stroke-width="2"/>
</svg>
