<svg width="60" height="63" viewBox="0 0 60 63" fill="none" xmlns="http://www.w3.org/2000/svg">
<path d="M23.3287 44.3159C24.6431 44.9832 25.8261 45.8022 26.8776 46.7729C27.9292 47.7435 28.8391 48.8355 29.6076 50.0488C30.376 51.2621 30.9523 52.5563 31.3365 53.9314C31.7207 55.3065 31.923 56.7422 31.9432 58.2386H28.0606C28.0606 56.6411 27.7573 55.1346 27.1506 53.719C26.544 52.3035 25.7149 51.07 24.6633 50.0185C23.6118 48.9669 22.3682 48.1277 20.9324 47.5009C19.4967 46.874 17.9902 46.5707 16.4129 46.5909C14.7951 46.5909 13.2886 46.8942 11.8933 47.5009C10.498 48.1075 9.26448 48.9366 8.19273 49.9881C7.12098 51.0397 6.28177 52.2833 5.67512 53.719C5.06847 55.1548 4.76514 56.6613 4.76514 58.2386H0.882568C0.882568 56.7624 1.08479 55.3368 1.48922 53.9617C1.89366 52.5866 2.46998 51.2924 3.21818 50.0791C3.96638 48.8658 4.86625 47.7739 5.91778 46.8032C6.96931 45.8326 8.1624 45.0035 9.49703 44.3159C8.00062 43.2037 6.83787 41.8287 6.00878 40.1907C5.17969 38.5527 4.76514 36.8036 4.76514 34.9432C4.76514 33.3456 5.06847 31.8391 5.67512 30.4236C6.28177 29.0081 7.11087 27.7745 8.1624 26.723C9.21393 25.6715 10.4475 24.8323 11.863 24.2054C13.2785 23.5785 14.7951 23.2752 16.4129 23.2954C18.2733 23.2954 20.0225 23.71 21.6604 24.5391C23.2984 25.3682 24.6735 26.5309 25.7857 28.0273C26.5541 26.5107 27.5348 25.1558 28.7279 23.9627C29.921 22.7697 31.2759 21.7889 32.7925 21.0205C31.2961 19.9083 30.1333 18.5332 29.3042 16.8952C28.4751 15.2573 28.0606 13.5081 28.0606 11.6477C28.0606 10.0502 28.3639 8.54366 28.9706 7.12814C29.5772 5.71262 30.4063 4.47909 31.4579 3.42756C32.5094 2.37603 33.7429 1.53682 35.1584 0.90995C36.574 0.283076 38.0906 -0.0202504 39.7083 -2.8668e-05C41.3058 -2.8668e-05 42.8124 0.303298 44.2279 0.90995C45.6434 1.5166 46.8769 2.34569 47.9285 3.39723C48.98 4.44876 49.8192 5.69239 50.4461 7.12814C51.0729 8.56388 51.3763 10.0704 51.356 11.6477C51.356 13.5081 50.9415 15.2573 50.1124 16.8952C49.2833 18.5332 48.1206 19.9083 46.6242 21.0205C47.9386 21.6878 49.1215 22.5068 50.1731 23.4774C51.2246 24.4481 52.1346 25.54 52.903 26.7533C53.6714 27.9667 54.2478 29.2608 54.632 30.6359C55.0162 32.011 55.2184 33.4467 55.2386 34.9432H51.356C51.356 33.3456 51.0527 31.8391 50.4461 30.4236C49.8394 29.0081 49.0103 27.7745 47.9588 26.723C46.9073 25.6715 45.6636 24.8323 44.2279 24.2054C42.7921 23.5785 41.2856 23.2752 39.7083 23.2954C38.0906 23.2954 36.5841 23.5988 35.1888 24.2054C33.7935 24.8121 32.5599 25.6411 31.4882 26.6927C30.4164 27.7442 29.5772 28.9878 28.9706 30.4236C28.3639 31.8593 28.0606 33.3659 28.0606 34.9432C28.0606 36.8036 27.6461 38.5527 26.817 40.1907C25.9879 41.8287 24.8251 43.2037 23.3287 44.3159ZM31.9432 11.6477C31.9432 12.7195 32.1454 13.7204 32.5498 14.6506C32.9543 15.5808 33.5104 16.4099 34.2181 17.1379C34.9259 17.8659 35.7449 18.422 36.6751 18.8062C37.6053 19.1904 38.6163 19.3926 39.7083 19.4128C40.7801 19.4128 41.7811 19.2106 42.7113 18.8062C43.6415 18.4018 44.4705 17.8457 45.1985 17.1379C45.9265 16.4301 46.4826 15.6112 46.8668 14.681C47.251 13.7508 47.4533 12.7397 47.4735 11.6477C47.4735 10.5759 47.2713 9.57497 46.8668 8.64477C46.4624 7.71457 45.9063 6.88548 45.1985 6.15749C44.4908 5.42951 43.6718 4.87341 42.7416 4.4892C41.8114 4.10499 40.8003 3.90277 39.7083 3.88255C38.6366 3.88255 37.6356 4.08476 36.7054 4.4892C35.7752 4.89363 34.9461 5.44973 34.2181 6.15749C33.4901 6.86525 32.934 7.68424 32.5498 8.61444C32.1656 9.54464 31.9634 10.5557 31.9432 11.6477ZM8.64772 34.9432C8.64772 36.0149 8.84994 37.0159 9.25437 37.9461C9.65881 38.8763 10.2149 39.7054 10.9227 40.4334C11.6304 41.1613 12.4494 41.7174 13.3796 42.1017C14.3098 42.4859 15.3209 42.6881 16.4129 42.7083C17.4846 42.7083 18.4856 42.5061 19.4158 42.1017C20.346 41.6972 21.1751 41.1411 21.9031 40.4334C22.6311 39.7256 23.1872 38.9066 23.5714 37.9764C23.9556 37.0462 24.1578 36.0351 24.178 34.9432C24.178 33.8714 23.9758 32.8704 23.5714 31.9402C23.1669 31.01 22.6108 30.1809 21.9031 29.4529C21.1953 28.725 20.3763 28.1689 19.4461 27.7847C18.5159 27.4004 17.5048 27.1982 16.4129 27.178C15.3411 27.178 14.3401 27.3802 13.4099 27.7847C12.4797 28.1891 11.6506 28.7452 10.9227 29.4529C10.1947 30.1607 9.63859 30.9797 9.25437 31.9099C8.87016 32.8401 8.66794 33.8512 8.64772 34.9432ZM54.268 62.1212L45.5322 55.2963L36.7964 62.1212L40.315 51.2014L31.9432 44.6496H42.4079L45.5322 34.9432L48.6564 44.6496H59.1212L50.7494 51.2014L54.268 62.1212Z" fill="#FF7A00"/>
</svg>
