<svg width="62" height="62" viewBox="0 0 62 62" fill="none" xmlns="http://www.w3.org/2000/svg">
<path d="M30.8785 4.36356C29.3716 4.36356 27.9264 4.96218 26.8608 6.02773C25.7953 7.09328 25.1967 8.53847 25.1967 10.0454C25.1967 11.5523 25.7953 12.9975 26.8608 14.063C27.9264 15.1286 29.3716 15.7272 30.8785 15.7272C32.3854 15.7272 33.8306 15.1286 34.8961 14.063C35.9617 12.9975 36.5603 11.5523 36.5603 10.0454C36.5603 8.53847 35.9617 7.09328 34.8961 6.02773C33.8306 4.96218 32.3854 4.36356 30.8785 4.36356ZM21.4088 10.0454C21.4088 7.53386 22.4065 5.12521 24.1824 3.34929C25.9583 1.57338 28.367 0.575684 30.8785 0.575684C33.39 0.575684 35.7986 1.57338 37.5746 3.34929C39.3505 5.12521 40.3482 7.53386 40.3482 10.0454C40.3482 12.5569 39.3505 14.9656 37.5746 16.7415C35.7986 18.5174 33.39 19.5151 30.8785 19.5151C28.367 19.5151 25.9583 18.5174 24.1824 16.7415C22.4065 14.9656 21.4088 12.5569 21.4088 10.0454ZM51.7118 8.15144C50.7072 8.15144 49.7437 8.55052 49.0334 9.26089C48.323 9.97125 47.9239 10.9347 47.9239 11.9393C47.9239 12.9439 48.323 13.9074 49.0334 14.6178C49.7437 15.3281 50.7072 15.7272 51.7118 15.7272C52.7164 15.7272 53.6799 15.3281 54.3902 14.6178C55.1006 13.9074 55.4997 12.9439 55.4997 11.9393C55.4997 10.9347 55.1006 9.97125 54.3902 9.26089C53.6799 8.55052 52.7164 8.15144 51.7118 8.15144ZM44.136 11.9393C44.136 9.9301 44.9342 8.00318 46.3549 6.58245C47.7757 5.16172 49.7026 4.36356 51.7118 4.36356C53.721 4.36356 55.6479 5.16172 57.0687 6.58245C58.4894 8.00318 59.2876 9.9301 59.2876 11.9393C59.2876 13.9485 58.4894 15.8755 57.0687 17.2962C55.6479 18.7169 53.721 19.5151 51.7118 19.5151C49.7026 19.5151 47.7757 18.7169 46.3549 17.2962C44.9342 15.8755 44.136 13.9485 44.136 11.9393ZM6.25726 11.9393C6.25726 10.9347 6.65634 9.97125 7.3667 9.26089C8.07707 8.55052 9.04053 8.15144 10.0451 8.15144C11.0497 8.15144 12.0132 8.55052 12.7236 9.26089C13.4339 9.97125 13.833 10.9347 13.833 11.9393C13.833 12.9439 13.4339 13.9074 12.7236 14.6178C12.0132 15.3281 11.0497 15.7272 10.0451 15.7272C9.04053 15.7272 8.07707 15.3281 7.3667 14.6178C6.65634 13.9074 6.25726 12.9439 6.25726 11.9393ZM10.0451 4.36356C8.03592 4.36356 6.109 5.16172 4.68827 6.58245C3.26754 8.00318 2.46938 9.9301 2.46938 11.9393C2.46938 13.9485 3.26754 15.8755 4.68827 17.2962C6.109 18.7169 8.03592 19.5151 10.0451 19.5151C12.0544 19.5151 13.9813 18.7169 15.402 17.2962C16.8227 15.8755 17.6209 13.9485 17.6209 11.9393C17.6209 9.9301 16.8227 8.00318 15.402 6.58245C13.9813 5.16172 12.0544 4.36356 10.0451 4.36356ZM12.3179 49.8105L11.9391 49.8181C9.92986 49.8181 8.00294 49.02 6.58221 47.5992C5.16148 46.1785 4.36332 44.2516 4.36332 42.2424V28.0378C4.36332 27.7867 4.46309 27.5458 4.64068 27.3682C4.81827 27.1906 5.05914 27.0908 5.31029 27.0908H11.9921C12.1436 25.7007 12.636 24.409 13.3747 23.303H5.31029C2.69665 23.303 0.57544 25.4242 0.57544 28.0378V42.2424C0.575263 43.864 0.922177 45.4669 1.59287 46.9434C2.26356 48.4199 3.2425 49.7357 4.4639 50.8024C5.68531 51.8692 7.12089 52.6622 8.67418 53.1281C10.2275 53.594 11.8625 53.7221 13.4694 53.5037C12.9605 52.3152 12.5746 51.0777 12.3179 49.8105ZM48.2876 53.5037C48.7876 53.5719 49.2977 53.606 49.8179 53.606C52.8317 53.606 55.7221 52.4088 57.8532 50.2777C59.9843 48.1466 61.1815 45.2562 61.1815 42.2424V28.0378C61.1815 25.4242 59.0603 23.303 56.4467 23.303H48.3823C49.1247 24.409 49.6133 25.7007 49.7648 27.0908H56.4467C56.6978 27.0908 56.9387 27.1906 57.1163 27.3682C57.2939 27.5458 57.3936 27.7867 57.3936 28.0378V42.2424C57.3939 43.2693 57.1854 44.2855 56.7807 45.2294C56.3761 46.1732 55.7838 47.0249 55.0398 47.7328C54.2958 48.4406 53.4157 48.9898 52.4529 49.347C51.4901 49.7042 50.4647 49.8619 49.4391 49.8105C49.1823 51.0777 48.7964 52.3152 48.2876 53.5037ZM20.4618 23.303C17.8482 23.303 15.727 25.4242 15.727 28.0378V46.0302C15.727 50.0487 17.3233 53.9025 20.1647 56.744C23.0062 59.5854 26.86 61.1817 30.8785 61.1817C34.8969 61.1817 38.7507 59.5854 41.5922 56.744C44.4337 53.9025 46.03 50.0487 46.03 46.0302V28.0378C46.03 25.4242 43.9088 23.303 41.2951 23.303H20.4618ZM19.5148 28.0378C19.5148 27.7867 19.6146 27.5458 19.7922 27.3682C19.9698 27.1906 20.2107 27.0908 20.4618 27.0908H41.2951C41.5463 27.0908 41.7872 27.1906 41.9647 27.3682C42.1423 27.5458 42.2421 27.7867 42.2421 28.0378V46.0302C42.2421 49.0441 41.0449 51.9344 38.9138 54.0655C36.7827 56.1966 33.8923 57.3939 30.8785 57.3939C27.8646 57.3939 24.9743 56.1966 22.8432 54.0655C20.7121 51.9344 19.5148 49.0441 19.5148 46.0302V28.0378Z" fill="#FF7A00"/>
</svg>
