<svg width="37" height="42" viewBox="0 0 37 42" fill="none" xmlns="http://www.w3.org/2000/svg">
<path d="M12.1094 2.50249H2.82812C2.11018 2.50249 1.42163 2.80942 0.913965 3.35577C0.406298 3.90211 0.121094 4.64311 0.121094 5.41576V38.7103C0.121094 39.4829 0.406298 40.2239 0.913965 40.7703C1.42163 41.3166 2.11018 41.6236 2.82812 41.6236H12.1094C12.4649 41.6236 12.8169 41.5482 13.1453 41.4018C13.4737 41.2554 13.7722 41.0408 14.0235 40.7703C14.2749 40.4998 14.4743 40.1786 14.6103 39.8252C14.7464 39.4717 14.8164 39.0929 14.8164 38.7103V5.41576C14.8164 5.03318 14.7464 4.65435 14.6103 4.3009C14.4743 3.94745 14.2749 3.62629 14.0235 3.35577C13.7722 3.08524 13.4737 2.87065 13.1453 2.72425C12.8169 2.57784 12.4649 2.50249 12.1094 2.50249ZM2.44141 11.6585H12.4961V32.4676H2.44141V11.6585ZM2.82812 4.99958H12.1094C12.2119 4.99958 12.3103 5.04343 12.3828 5.12148C12.4554 5.19952 12.4961 5.30538 12.4961 5.41576V9.1614H2.44141V5.41576C2.44141 5.30538 2.48215 5.19952 2.55467 5.12148C2.6272 5.04343 2.72556 4.99958 2.82812 4.99958ZM12.1094 39.1265H2.82812C2.72556 39.1265 2.6272 39.0826 2.55467 39.0046C2.48215 38.9265 2.44141 38.8207 2.44141 38.7103V34.9647H12.4961V38.7103C12.4961 38.8207 12.4554 38.9265 12.3828 39.0046C12.3103 39.0826 12.2119 39.1265 12.1094 39.1265ZM36.4146 36.0051L29.997 3.16006C29.9246 2.78405 29.7838 2.42716 29.5828 2.10992C29.3817 1.79268 29.1244 1.52134 28.8256 1.31151C28.5267 1.10168 28.1923 0.957509 27.8415 0.887276C27.4907 0.817043 27.1304 0.822139 26.7815 0.90227L17.7303 2.99566C17.0298 3.16137 16.4183 3.61765 16.0285 4.26551C15.6386 4.91336 15.5018 5.70053 15.6479 6.45622L22.0655 39.295C22.1384 39.6723 22.2803 40.0303 22.4827 40.3482C22.6852 40.6661 22.9443 40.9377 23.2449 41.147C23.6801 41.4534 24.1887 41.6168 24.7087 41.6173C24.9037 41.6184 25.0983 41.5961 25.2888 41.5507L34.3399 39.4594C35.0377 39.2918 35.6464 38.8357 36.0345 38.1895C36.4227 37.5432 36.5592 36.7587 36.4146 36.0051ZM20.4026 18.667L30.2117 16.3988L32.9419 30.3742L23.1309 32.6361L20.4026 18.667ZM19.1206 12.0996L28.9316 9.82521L29.7341 13.9475L19.925 16.2157L19.1206 12.0996ZM18.2195 5.44073L27.2687 3.34942C27.2958 3.34661 27.323 3.34661 27.35 3.34942C27.4223 3.34951 27.4929 3.37268 27.553 3.41601C27.5974 3.44644 27.6356 3.48632 27.6652 3.53319C27.6948 3.58007 27.7151 3.63295 27.7251 3.68861L28.4502 7.39679L18.643 9.64833L17.9198 5.94847C17.8972 5.83788 17.916 5.72216 17.9721 5.62636C18.0282 5.53056 18.1171 5.46237 18.2195 5.43657V5.44073ZM33.8449 37.0289L24.7938 39.1265C24.7453 39.138 24.6952 39.139 24.6463 39.1294C24.5975 39.1197 24.551 39.0996 24.5095 39.0703C24.4651 39.0399 24.4269 39 24.3973 38.9531C24.3677 38.9062 24.3474 38.8533 24.3374 38.7977L23.6123 35.0895L33.4195 32.8213L34.1523 36.5108C34.1637 36.5663 34.1648 36.6236 34.1554 36.6795C34.1461 36.7355 34.1266 36.7889 34.098 36.8366C34.0694 36.8844 34.0324 36.9256 33.9889 36.9579C33.9455 36.9902 33.8965 37.0129 33.8449 37.0248V37.0289Z" fill="#FF7A00"/>
</svg>
