<svg width="25" height="20" viewBox="0 0 25 20" fill="none" xmlns="http://www.w3.org/2000/svg">
<path d="M16.2436 0L11.1186 3.28175L11.6381 3.56553L16.1977 0.64574L23.9316 5.01601L19.4956 7.85656L19.7117 7.97455V8.33462L23.1863 6.10963L23.9155 6.52176L19.7116 9.21361V9.83001L23.1182 7.64861L23.9155 8.09922L19.7116 10.7911V11.4075L23.1182 9.22607L23.9155 9.67668L19.7116 12.3685V12.9849L24.984 9.60875L23.6754 8.86936L24.984 8.03139L23.6754 7.2919L24.9839 6.45393L23.7434 5.75287L25 4.94813L16.2436 0ZM17.8811 2.35245C16.7722 2.90748 15.2953 3.00139 14.2554 2.58291L12.2225 3.88464L18.9111 7.5374L20.8392 6.30281C20.0797 5.70466 20.143 4.81216 20.9943 4.11179L17.8811 2.35245ZM10.9981 4.29498L7.27237 6.71862L14.4199 10.8234L14.49 10.7787C14.6218 10.694 14.8078 10.5741 15.0298 10.4309C15.4736 10.1448 16.0609 9.76528 16.6466 9.3867C17.49 8.84144 17.9246 8.56014 18.3288 8.2986L10.9981 4.29498ZM17.084 4.35649H17.0841C17.2527 4.35752 17.4072 4.39356 17.5227 4.45876C17.5898 4.49671 17.6419 4.54351 17.676 4.5965C17.71 4.64949 17.7254 4.70764 17.7211 4.76761C17.7168 4.82758 17.6931 4.8882 17.6512 4.94601C17.6092 5.00383 17.55 5.0577 17.4768 5.10456C17.4036 5.15141 17.318 5.19033 17.2247 5.2191C17.1314 5.24786 17.0323 5.26591 16.933 5.27221C16.8338 5.27851 16.7364 5.27294 16.6464 5.25581C16.5563 5.23868 16.4754 5.21033 16.4083 5.17238C16.2727 5.09576 16.2013 4.98468 16.2099 4.86359C16.2185 4.7425 16.3064 4.62132 16.4541 4.5267C16.538 4.47295 16.6383 4.42973 16.7473 4.40026C16.8564 4.37078 16.9715 4.35582 17.084 4.35649ZM5.57163 6.83382L0.0160756 10.3911L1.25663 11.0922L0 11.8969L1.3086 12.6364L0 13.4744L1.3086 14.2138L0 15.0519L8.75643 20L14.0431 16.6146V15.9983L8.80233 19.3542L1.06847 14.9839L1.8198 14.5028L8.75643 18.4225L14.0431 15.0371V14.4209L8.80233 17.7768L1.06847 13.4065L1.8198 12.9254L8.75643 16.8451L14.0431 13.4597V12.8435L8.80233 16.1994L1.06847 11.8291L1.76789 11.3811L8.77261 15.3393L14.0431 11.9643V11.6988L13.7543 11.5329L8.81831 14.6935L1.08465 10.3233L6.07914 7.12512L5.57157 6.83366L5.57163 6.83382ZM6.65 7.45322L4.17701 9.03667C4.93651 9.63472 4.87326 10.5272 4.02194 11.2277L7.13522 12.987C8.24401 12.4319 9.72086 12.3381 10.7608 12.7565L13.1834 11.2052L6.6499 7.45316L6.65 7.45322ZM18.7629 9.14578C18.3389 9.42009 17.965 9.66222 17.1626 10.181C16.6236 10.5296 16.0844 10.8779 15.545 11.2259C15.3227 11.3692 15.1363 11.4893 15.0033 11.5746C14.9985 11.5778 14.9966 11.5788 14.9919 11.5818V16.0997L18.763 13.5713L18.7629 9.14578ZM8.16938 10.0649C8.33796 10.0659 8.49251 10.102 8.6079 10.1673C8.7435 10.2439 8.81485 10.355 8.80625 10.4761C8.79765 10.5971 8.70981 10.7183 8.56205 10.8129C8.41428 10.9075 8.21872 10.9678 8.01837 10.9806C7.81802 10.9933 7.62929 10.9574 7.49368 10.8808C7.35808 10.8041 7.28673 10.6931 7.29533 10.572C7.30393 10.4509 7.39177 10.3297 7.53954 10.2351C7.62345 10.1813 7.72369 10.1381 7.83275 10.1087C7.94181 10.0792 8.05688 10.0643 8.16938 10.0649V10.0649Z" fill="#FF7A00"/>
</svg>
