<svg width="12" height="19" viewBox="0 0 12 19" fill="none" xmlns="http://www.w3.org/2000/svg">
<path d="M11.5695 12.9975C11.5695 9.77275 8.68201 9.4052 6.36208 9.11033C3.83361 8.7889 2.40284 8.5094 2.40284 6.51794C2.40284 4.84652 4.31791 4.25257 5.95798 4.25257C6.77531 4.22842 7.5872 4.38233 8.32671 4.70161C9.06623 5.02088 9.71218 5.49639 10.2113 6.08891L11.3999 5.21127C10.8654 4.5825 10.2003 4.05658 9.44282 3.66373C8.68536 3.27089 7.85048 3.01886 6.98618 2.92214V0.758789H5.4584V2.87043C2.69694 3.02416 0.875067 4.44962 0.875067 6.51794C0.875067 9.82306 3.80076 10.1955 6.15201 10.4939C8.63618 10.8104 10.0417 11.0822 10.0417 12.9975C10.0417 15.1161 7.64847 15.4327 6.22229 15.4327C3.60215 15.4327 2.49604 14.7591 1.46937 13.5963L0.280762 14.474C0.886343 15.204 1.66959 15.7948 2.56836 16.1995C3.46712 16.6043 4.45664 16.8118 5.4584 16.8057V18.9265H6.98618V16.7988C9.83243 16.5863 11.5695 15.1727 11.5695 12.9975Z" fill="#FF7A00"/>
</svg>
