<svg width="30" height="29" viewBox="0 0 30 29" fill="none" xmlns="http://www.w3.org/2000/svg">
<path d="M12.1666 13.4165C11.6708 14.2523 11.2599 15.1732 11.0191 16.1507C7.20825 16.4765 3.52492 18.2615 3.52492 19.0832V20.6415H11.0333C11.2741 21.6048 11.6708 22.5115 12.1666 23.3332H0.833252V19.0832C0.833252 15.3148 8.38409 13.4165 12.1666 13.4165ZM12.1666 0.666504C13.6695 0.666504 15.1108 1.26353 16.1735 2.32623C17.2362 3.38894 17.8333 4.83028 17.8333 6.33317C17.8333 7.62234 17.3941 8.81234 16.6716 9.77567C15.4533 10.229 14.3624 10.9515 13.4558 11.8582L12.1666 11.9998C10.6637 11.9998 9.22235 11.4028 8.15965 10.3401C7.09694 9.2774 6.49992 7.83606 6.49992 6.33317C6.49992 4.83028 7.09694 3.38894 8.15965 2.32623C9.22235 1.26353 10.6637 0.666504 12.1666 0.666504ZM12.1666 3.35817C11.3776 3.35817 10.6209 3.67161 10.0629 4.22953C9.50502 4.78745 9.19159 5.54415 9.19159 6.33317C9.19159 7.12219 9.50502 7.87889 10.0629 8.43681C10.6209 8.99473 11.3776 9.30817 12.1666 9.30817C12.9556 9.30817 13.7123 8.99473 14.2702 8.43681C14.8281 7.87889 15.1416 7.12219 15.1416 6.33317C15.1416 5.54415 14.8281 4.78745 14.2702 4.22953C13.7123 3.67161 12.9556 3.35817 12.1666 3.35817ZM19.9583 11.9998C23.4999 11.9998 26.3333 14.8332 26.3333 18.3748C26.3333 19.6215 25.9791 20.7973 25.3558 21.7748L29.7191 26.1665L27.7499 28.1357L23.3299 23.7865C22.3524 24.3957 21.1908 24.7498 19.9583 24.7498C16.4166 24.7498 13.5833 21.9165 13.5833 18.3748C13.5833 14.8332 16.4166 11.9998 19.9583 11.9998ZM19.9583 14.8332C19.0189 14.8332 18.1181 15.2063 17.4539 15.8705C16.7897 16.5347 16.4166 17.4355 16.4166 18.3748C16.4166 19.3141 16.7897 20.215 17.4539 20.8792C18.1181 21.5434 19.0189 21.9165 19.9583 21.9165C20.8976 21.9165 21.7984 21.5434 22.4626 20.8792C23.1268 20.215 23.4999 19.3141 23.4999 18.3748C23.4999 17.4355 23.1268 16.5347 22.4626 15.8705C21.7984 15.2063 20.8976 14.8332 19.9583 14.8332Z" fill="white"/>
</svg>
