<svg width="29" height="20" viewBox="0 0 29 20" fill="none" xmlns="http://www.w3.org/2000/svg">
<path d="M0.291504 19.8903V18.2498H3.86942L2.87484 17.2553V0.166504H26.1248V17.2553L25.1303 18.2498H28.7082V19.8903H0.291504ZM14.4998 19.2444C14.7254 19.2444 14.914 19.1678 15.0656 19.0145C15.218 18.8621 15.2942 18.6735 15.2942 18.4488C15.2942 18.224 15.218 18.035 15.0656 17.8817C14.9132 17.7284 14.7246 17.6522 14.4998 17.6531C14.2751 17.6539 14.0865 17.7302 13.9341 17.8817C13.7817 18.0333 13.7055 18.2223 13.7055 18.4488C13.7055 18.6752 13.7817 18.8638 13.9341 19.0145C14.0865 19.1652 14.2751 19.2414 14.4998 19.2431M4.1665 16.9582H24.8332V1.45817H4.1665V16.9582Z" fill="#FF7A00"/>
</svg>
