<svg width="42" height="42" viewBox="0 0 42 42" fill="none" xmlns="http://www.w3.org/2000/svg">
<g clip-path="url(#clip0_13_2230)">
<g filter="url(#filter0_d_13_2230)">
<path d="M26.4269 30.115C26.4269 30.4197 26.3058 30.712 26.0904 30.9274C25.8749 31.1429 25.5826 31.264 25.2779 31.264H9.19204C8.93926 31.264 8.69797 31.4938 8.49115 31.6431L4.59608 34.7109V16.3271C4.59608 16.0224 4.71713 15.7301 4.93261 15.5146C5.14808 15.2992 5.44033 15.1781 5.74507 15.1781H10.1802V12.8801H5.74507C4.83087 12.8801 3.95412 13.2433 3.30769 13.8897C2.66126 14.5362 2.2981 15.4129 2.2981 16.3271V37.0089C2.29981 37.2223 2.36091 37.431 2.47455 37.6116C2.5882 37.7922 2.7499 37.9376 2.94153 38.0315C3.12615 38.1155 3.3297 38.1491 3.53151 38.1289C3.73331 38.1087 3.92618 38.0355 4.09052 37.9166L10.0078 33.5619H25.4502C25.8857 33.5748 26.3192 33.4982 26.7238 33.3367C27.1285 33.1752 27.4957 32.9324 27.8027 32.6233C28.1096 32.3141 28.3499 31.9453 28.5085 31.5395C28.6671 31.1337 28.7408 30.6997 28.7249 30.2643V28.966H26.4269V30.115Z" fill="#FF7A00"/>
</g>
<g filter="url(#filter1_d_13_2230)">
<path d="M35.6187 4.83716H16.0859C15.1717 4.83716 14.2949 5.20032 13.6485 5.84675C13.0021 6.49318 12.6389 7.36993 12.6389 8.28413V22.072C12.6389 22.9862 13.0021 23.8629 13.6485 24.5094C14.2949 25.1558 15.1717 25.519 16.0859 25.519H31.6547L37.1469 29.7817C37.3101 29.9024 37.5025 29.9777 37.7043 29.9999C37.9061 30.0221 38.1103 29.9905 38.2959 29.9081C38.4914 29.815 38.6566 29.6685 38.7725 29.4855C38.8884 29.3026 38.9502 29.0906 38.9508 28.874V8.28413C38.9513 7.3895 38.6039 6.52972 37.9821 5.88649C37.3604 5.24326 36.5128 4.86698 35.6187 4.83716ZM36.7677 26.599L32.7462 23.4623C32.5457 23.3066 32.2992 23.2218 32.0454 23.221H16.0859C15.7812 23.221 15.4889 23.0999 15.2734 22.8845C15.058 22.669 14.9369 22.3767 14.9369 22.072V8.28413C14.9369 7.9794 15.058 7.68715 15.2734 7.47167C15.4889 7.25619 15.7812 7.13514 16.0859 7.13514H35.6187C35.9258 7.16301 36.2122 7.30222 36.4238 7.52655C36.6354 7.75087 36.7578 8.04483 36.7677 8.35307V26.599Z" fill="#FF7A00"/>
</g>
</g>
<defs>
<filter id="filter0_d_13_2230" x="-1.7019" y="12.8801" width="34.429" height="33.2544" filterUnits="userSpaceOnUse" color-interpolation-filters="sRGB">
<feFlood flood-opacity="0" result="BackgroundImageFix"/>
<feColorMatrix in="SourceAlpha" type="matrix" values="0 0 0 0 0 0 0 0 0 0 0 0 0 0 0 0 0 0 127 0" result="hardAlpha"/>
<feOffset dy="4"/>
<feGaussianBlur stdDeviation="2"/>
<feComposite in2="hardAlpha" operator="out"/>
<feColorMatrix type="matrix" values="0 0 0 0 0 0 0 0 0 0 0 0 0 0 0 0 0 0 0.25 0"/>
<feBlend mode="normal" in2="BackgroundImageFix" result="effect1_dropShadow_13_2230"/>
<feBlend mode="normal" in="SourceGraphic" in2="effect1_dropShadow_13_2230" result="shape"/>
</filter>
<filter id="filter1_d_13_2230" x="8.63892" y="4.83716" width="34.3118" height="33.1697" filterUnits="userSpaceOnUse" color-interpolation-filters="sRGB">
<feFlood flood-opacity="0" result="BackgroundImageFix"/>
<feColorMatrix in="SourceAlpha" type="matrix" values="0 0 0 0 0 0 0 0 0 0 0 0 0 0 0 0 0 0 127 0" result="hardAlpha"/>
<feOffset dy="4"/>
<feGaussianBlur stdDeviation="2"/>
<feComposite in2="hardAlpha" operator="out"/>
<feColorMatrix type="matrix" values="0 0 0 0 0 0 0 0 0 0 0 0 0 0 0 0 0 0 0.25 0"/>
<feBlend mode="normal" in2="BackgroundImageFix" result="effect1_dropShadow_13_2230"/>
<feBlend mode="normal" in="SourceGraphic" in2="effect1_dropShadow_13_2230" result="shape"/>
</filter>
<clipPath id="clip0_13_2230">
<rect width="41.3636" height="41.3636" fill="white" transform="translate(0 0.241211)"/>
</clipPath>
</defs>
</svg>
