<svg width="30" height="40" viewBox="0 0 30 40" fill="none" xmlns="http://www.w3.org/2000/svg">
<path d="M11.5468 24.5419H17.5949V22.2825H11.5468V24.5419ZM11.5468 17.7638H23.6465V15.5044H11.5468V17.7638ZM11.5468 10.9857H23.6465V8.72636H11.5468V10.9857ZM8.27072 32.4496C7.47126 32.4496 6.80388 32.1017 6.26858 31.4058C5.73329 30.7099 5.46506 29.8416 5.4639 28.8008V4.46747C5.4639 3.42816 5.73213 2.56057 6.26858 1.86469C6.80504 1.1688 7.47241 0.82011 8.27072 0.818604H26.9886C27.7881 0.818604 28.4555 1.1673 28.9908 1.86469C29.5261 2.56208 29.7943 3.42967 29.7955 4.46747V28.8008C29.7955 29.8401 29.5278 30.7084 28.9925 31.4058C28.4572 32.1032 27.7893 32.4511 26.9886 32.4496H8.27072ZM8.27072 30.1903H26.9886C27.2551 30.1903 27.5002 30.0457 27.7238 29.7565C27.9474 29.4673 28.0586 29.1487 28.0575 28.8008V4.46747C28.0575 4.12103 27.9463 3.80246 27.7238 3.51176C27.5013 3.22105 27.2563 3.07646 26.9886 3.07796H8.27072C8.00423 3.07796 7.75918 3.22256 7.53556 3.51176C7.31194 3.80096 7.20071 4.11953 7.20187 4.46747V28.8008C7.20187 29.1472 7.3131 29.4658 7.53556 29.7565C7.75802 30.0472 8.00307 30.1918 8.27072 30.1903ZM3.05682 39.2277C2.25735 39.2277 1.58997 38.8798 1.05468 38.1839C0.519385 37.488 0.251159 36.6196 0.25 35.5788V8.98618H1.98797V35.5788C1.98797 35.9253 2.0992 36.2438 2.32166 36.5345C2.54412 36.8252 2.78917 36.9698 3.05682 36.9683H23.5127V39.2277H3.05682Z" fill="#FF7A00"/>
</svg>
