<svg width="33" height="25" viewBox="0 0 33 25" fill="none" xmlns="http://www.w3.org/2000/svg">
<path d="M20.8219 0.833496C19.2788 0.833496 17.7989 1.44808 16.7078 2.54204C15.6167 3.636 15.0037 5.11973 15.0037 6.66683C15.0037 8.21393 15.6167 9.69766 16.7078 10.7916C17.7989 11.8856 19.2788 12.5002 20.8219 12.5002C22.365 12.5002 23.8448 11.8856 24.936 10.7916C26.0271 9.69766 26.6401 8.21393 26.6401 6.66683C26.6401 5.11973 26.0271 3.636 24.936 2.54204C23.8448 1.44808 22.365 0.833496 20.8219 0.833496ZM20.8219 3.60433C21.223 3.60433 21.6202 3.68354 21.9908 3.83745C22.3614 3.99135 22.6981 4.21694 22.9818 4.50131C23.2654 4.78569 23.4904 5.1233 23.6439 5.49486C23.7974 5.86642 23.8764 6.26466 23.8764 6.66683C23.8764 7.069 23.7974 7.46724 23.6439 7.8388C23.4904 8.21036 23.2654 8.54797 22.9818 8.83234C22.6981 9.11672 22.3614 9.34231 21.9908 9.49621C21.6202 9.65012 21.223 9.72933 20.8219 9.72933C20.4208 9.72933 20.0236 9.65012 19.653 9.49621C19.2824 9.34231 18.9456 9.11672 18.662 8.83234C18.3784 8.54797 18.1534 8.21036 17.9999 7.8388C17.8464 7.46724 17.7673 7.069 17.7673 6.66683C17.7673 5.8546 18.0892 5.07564 18.662 4.50131C19.2348 3.92698 20.0118 3.60433 20.8219 3.60433ZM4.82189 5.2085V9.5835H0.458252V12.5002H4.82189V16.8752H7.73098V12.5002H12.0946V9.5835H7.73098V5.2085H4.82189ZM20.8219 13.9585C16.9383 13.9585 9.18552 15.8981 9.18552 19.7918V24.1668H32.4583V19.7918C32.4583 15.8981 24.7055 13.9585 20.8219 13.9585ZM20.8219 16.7293C25.1419 16.7293 29.6946 18.8585 29.6946 19.7918V21.396H11.9492V19.7918C11.9492 18.8585 16.4583 16.7293 20.8219 16.7293Z" fill="white"/>
</svg>
