<svg width="35" height="26" viewBox="0 0 35 26" fill="none" xmlns="http://www.w3.org/2000/svg">
<path d="M23.3333 12.7708C23.3333 11.8039 23.7174 10.8766 24.4012 10.1928C25.0849 9.50911 26.0122 9.125 26.9792 9.125C27.9461 9.125 28.8734 9.50911 29.5572 10.1928C30.2409 10.8766 30.625 11.8039 30.625 12.7708C30.625 13.7378 30.2409 14.6651 29.5572 15.3488C28.8734 16.0326 27.9461 16.4167 26.9792 16.4167C26.0122 16.4167 25.0849 16.0326 24.4012 15.3488C23.7174 14.6651 23.3333 13.7378 23.3333 12.7708ZM18.9583 0.375V25.1667H35V0.375H18.9583ZM32.0833 19.3333C30.4792 19.3333 29.1667 20.6458 29.1667 22.25H24.7917C24.7917 21.4764 24.4844 20.7346 23.9374 20.1876C23.3904 19.6406 22.6485 19.3333 21.875 19.3333V6.20833C23.4938 6.20833 24.7917 4.91042 24.7917 3.29167H29.1667C29.1667 4.06521 29.474 4.80708 30.0209 5.35406C30.5679 5.90104 31.3098 6.20833 32.0833 6.20833V19.3333ZM10.2083 4.75C11.8125 4.75 13.125 6.0625 13.125 7.66667C13.125 9.27083 11.8125 10.5833 10.2083 10.5833C8.60417 10.5833 7.29167 9.27083 7.29167 7.66667C7.29167 6.0625 8.60417 4.75 10.2083 4.75ZM10.2083 1.83333C6.98542 1.83333 4.375 4.44375 4.375 7.66667C4.375 10.8896 6.98542 13.5 10.2083 13.5C13.4313 13.5 16.0417 10.8896 16.0417 7.66667C16.0417 4.44375 13.4313 1.83333 10.2083 1.83333ZM10.2083 16.4167C4.56458 16.4167 0 19.0271 0 22.25V25.1667H16.0417V22.25H2.91667C2.91667 21.4042 5.46875 19.3333 10.2083 19.3333C12.8771 19.3333 14.8313 19.9896 16.0417 20.7188V17.4667C14.3938 16.8104 12.3958 16.4167 10.2083 16.4167Z" fill="white"/>
</svg>
