<svg width="14" height="21" viewBox="0 0 14 21" fill="none" xmlns="http://www.w3.org/2000/svg">
<path d="M0.000137842 0.753906V1.14581C0.000137842 5.42234 1.74991 9.10081 4.41804 10.4617V10.7174C1.74986 12.0783 9.16616e-05 15.7568 9.16616e-05 20.0334V20.4253H13.1492V20.0334C13.1492 15.7317 11.3698 12.0521 8.67687 10.7134V10.4657C11.3696 9.1269 13.1492 5.44726 13.1492 1.14577V0.753906H0H0.000137842ZM0.868512 1.53767H12.2809C12.1673 5.58316 10.3209 8.90018 8.06501 9.88101L7.82 9.98721V11.1932L8.06506 11.2993C10.3209 12.2802 12.1672 15.5962 12.2809 19.6414H0.868512C0.981135 15.6189 2.8002 12.2976 5.03567 11.2967L5.27642 11.1893V9.98986L5.03567 9.88239C2.80029 8.88155 0.981089 5.56022 0.868512 1.53767ZM10.6659 5.15028C8.02429 6.3168 4.95566 6.31806 2.52364 5.32205C3.19561 7.45732 4.53286 8.97711 6.10618 9.22828C6.03278 9.31695 5.99301 9.42511 5.99292 9.53633C5.99292 9.81989 6.24458 10.0502 6.55465 10.0502C6.86473 10.0502 7.11639 9.81989 7.11639 9.53633C7.11639 9.42224 7.0748 9.31746 7.00606 9.23222C8.63055 8.98558 10.0091 7.38362 10.6659 5.15028ZM6.55465 10.6807C6.24458 10.6807 5.99292 10.9109 5.99292 11.1945C5.99292 11.4782 6.24458 11.7084 6.55465 11.7084C6.86473 11.7084 7.11639 11.4782 7.11639 11.1945C7.11639 10.9109 6.86473 10.6807 6.55465 10.6807ZM6.55465 12.3284C6.24458 12.3284 5.99292 12.5586 5.99292 12.8422C5.99292 13.1259 6.24458 13.356 6.55465 13.356C6.86473 13.356 7.11639 13.1259 7.11639 12.8422C7.11639 12.5586 6.86473 12.3284 6.55465 12.3284ZM6.55465 13.9866C6.24458 13.9866 5.99292 14.2168 5.99292 14.5004C5.99292 14.784 6.24458 15.0143 6.55465 15.0143C6.86473 15.0143 7.11639 14.784 7.11639 14.5004C7.11639 14.2168 6.86473 13.9866 6.55465 13.9866ZM6.56039 15.6605C5.49607 15.6723 4.4423 16.7415 3.08391 18.834H10.0999C8.70021 16.6946 7.6247 15.6488 6.56039 15.6605Z" fill="#FF7A00"/>
</svg>
