<svg width="23" height="35" viewBox="0 0 23 35" fill="none" xmlns="http://www.w3.org/2000/svg">
<path d="M0.101556 0.712891V1.39455C0.101556 8.83293 3.11991 15.2311 7.72244 17.5982V18.0428C3.11983 20.41 0.101476 26.8081 0.101476 34.2466V34.9283H22.7837V34.2466C22.7837 26.7645 19.7142 20.3644 15.0689 18.036V17.6051C19.7139 15.2764 22.7837 8.87627 22.7837 1.39447V0.712891H0.101318H0.101556ZM1.5995 2.07613H21.2859C21.09 9.11266 17.9049 14.8821 14.0135 16.5881L13.5908 16.7728V18.8705L14.0135 19.0551C17.9048 20.7611 21.0897 26.5288 21.2859 33.5648H1.5995C1.79378 26.5682 4.93166 20.7913 8.78786 19.0505L9.20314 18.8636V16.7774L8.78786 16.5905C4.93181 14.8497 1.7937 9.07275 1.5995 2.07613ZM18.5 8.35972C13.9432 10.3887 8.64982 10.3909 4.45459 8.65849C5.61375 12.3725 7.92051 15.0159 10.6345 15.4528C10.5079 15.607 10.4393 15.7951 10.4391 15.9886C10.4391 16.4818 10.8732 16.8823 11.4081 16.8823C11.943 16.8823 12.3771 16.4818 12.3771 15.9886C12.3771 15.7902 12.3053 15.6079 12.1868 15.4596C14.989 15.0306 17.367 12.2443 18.5 8.35972ZM11.4081 17.9791C10.8732 17.9791 10.4391 18.3795 10.4391 18.8728C10.4391 19.3662 10.8732 19.7666 11.4081 19.7666C11.943 19.7666 12.3771 19.3662 12.3771 18.8728C12.3771 18.3795 11.943 17.9791 11.4081 17.9791ZM11.4081 20.8449C10.8732 20.8449 10.4391 21.2454 10.4391 21.7386C10.4391 22.2321 10.8732 22.6324 11.4081 22.6324C11.943 22.6324 12.3771 22.2321 12.3771 21.7386C12.3771 21.2454 11.943 20.8449 11.4081 20.8449ZM11.4081 23.7292C10.8732 23.7292 10.4391 24.1296 10.4391 24.6229C10.4391 25.1161 10.8732 25.5167 11.4081 25.5167C11.943 25.5167 12.3771 25.1161 12.3771 24.6229C12.3771 24.1296 11.943 23.7292 11.4081 23.7292ZM11.418 26.6407C9.58204 26.6611 7.76428 28.5208 5.42106 32.1605H17.5236C15.1092 28.4393 13.2539 26.6203 11.418 26.6407Z" fill="#FF7A00"/>
</svg>
