<svg width="22" height="23" viewBox="0 0 22 23" fill="none" xmlns="http://www.w3.org/2000/svg">
<path d="M11 0.748047C8.82441 0.748047 6.69767 1.38786 4.88873 2.58659C3.07979 3.78531 1.66989 5.4891 0.83733 7.48251C0.00476595 9.47591 -0.21307 11.6694 0.211367 13.7856C0.635804 15.9018 1.68345 17.8456 3.22183 19.3713C4.76021 20.897 6.72022 21.936 8.85401 22.3569C10.9878 22.7779 13.1995 22.5618 15.2095 21.7361C17.2195 20.9104 18.9375 19.5122 20.1462 17.7182C21.3549 15.9241 22 13.8149 22 11.6573C21.9968 8.76496 20.8368 5.99199 18.7746 3.9468C16.7124 1.90161 13.9164 0.751223 11 0.748047ZM11 21.6938C8.99846 21.6938 7.04186 21.1052 5.37763 20.0024C3.71341 18.8995 2.4163 17.332 1.65034 15.4981C0.884385 13.6642 0.683975 11.6462 1.07446 9.69927C1.46494 7.75238 2.42878 5.96404 3.84408 4.56041C5.25939 3.15678 7.0626 2.2009 9.02569 1.81364C10.9888 1.42637 13.0236 1.62513 14.8728 2.38477C16.7219 3.14441 18.3025 4.43081 19.4145 6.08131C20.5265 7.73181 21.12 9.67226 21.12 11.6573C21.1171 14.3183 20.0499 16.8694 18.1527 18.751C16.2555 20.6326 13.6831 21.6909 11 21.6938ZM17.6 11.6573C17.6 11.773 17.5536 11.884 17.4711 11.9659C17.3886 12.0477 17.2767 12.0937 17.16 12.0937H11C10.8833 12.0937 10.7714 12.0477 10.6889 11.9659C10.6064 11.884 10.56 11.773 10.56 11.6573V5.54812C10.56 5.43238 10.6064 5.32139 10.6889 5.23956C10.7714 5.15772 10.8833 5.11175 11 5.11175C11.1167 5.11175 11.2286 5.15772 11.3111 5.23956C11.3936 5.32139 11.44 5.43238 11.44 5.54812V11.2209H17.16C17.2767 11.2209 17.3886 11.2669 17.4711 11.3487C17.5536 11.4306 17.6 11.5416 17.6 11.6573Z" fill="#FF7A00"/>
</svg>
