<svg width="21" height="16" viewBox="0 0 21 16" fill="none" xmlns="http://www.w3.org/2000/svg">
<path fill-rule="evenodd" clip-rule="evenodd" d="M20.5031 0.242808C20.6875 0.409433 20.7983 0.642478 20.8109 0.890708C20.8236 1.13894 20.7371 1.38204 20.5706 1.56656L8.04936 15.405L0.478111 8.17781C0.308103 8.00406 0.212228 7.77107 0.210712 7.52799C0.209195 7.28491 0.302156 7.05074 0.469984 6.87489C0.637811 6.69904 0.867382 6.59525 1.11027 6.58541C1.35316 6.57558 1.59037 6.66047 1.77186 6.82218L7.94999 12.7191L19.1803 0.30937C19.2629 0.218041 19.3628 0.143893 19.4741 0.0911633C19.5854 0.0384341 19.706 0.00815836 19.829 0.00206389C19.9521 -0.00403059 20.0751 0.0141765 20.1911 0.0556455C20.307 0.0971145 20.4137 0.161032 20.505 0.243745" fill="#FF7A00"/>
</svg>
