<svg width="24" height="19" viewBox="0 0 24 19" fill="none" xmlns="http://www.w3.org/2000/svg">
<path d="M15.7289 7.56711L10.1039 4.13685C10.0333 4.09375 9.95122 4.06901 9.86643 4.06525C9.78165 4.06149 9.69734 4.07886 9.62251 4.11551C9.54767 4.15216 9.48512 4.20671 9.44153 4.27333C9.39794 4.33996 9.37494 4.41616 9.375 4.49381V11.3543C9.3749 11.432 9.39785 11.5082 9.4414 11.5748C9.48495 11.6415 9.54746 11.696 9.62227 11.7327C9.69714 11.7694 9.7815 11.7868 9.86633 11.783C9.95116 11.7792 10.0333 11.7544 10.1039 11.7113L15.7289 8.28103C15.7932 8.24189 15.8459 8.18882 15.8824 8.12655C15.9189 8.06427 15.938 7.99472 15.938 7.92407C15.938 7.85342 15.9189 7.78387 15.8824 7.72159C15.8459 7.65932 15.7932 7.60625 15.7289 7.56711ZM10.3125 10.5536V5.29456L14.6238 7.92407L10.3125 10.5536ZM22.0312 0.634766H1.40625C1.03329 0.634766 0.675604 0.770291 0.411881 1.01153C0.148158 1.25276 0 1.57995 0 1.92111V13.927C0 14.2682 0.148158 14.5954 0.411881 14.8366C0.675604 15.0778 1.03329 15.2134 1.40625 15.2134H22.0312C22.4042 15.2134 22.7619 15.0778 23.0256 14.8366C23.2893 14.5954 23.4375 14.2682 23.4375 13.927V1.92111C23.4375 1.57995 23.2893 1.25276 23.0256 1.01153C22.7619 0.770291 22.4042 0.634766 22.0312 0.634766ZM22.5 13.927C22.5 14.0407 22.4506 14.1498 22.3627 14.2302C22.2748 14.3106 22.1556 14.3558 22.0312 14.3558H1.40625C1.28193 14.3558 1.1627 14.3106 1.07479 14.2302C0.986886 14.1498 0.9375 14.0407 0.9375 13.927V1.92111C0.9375 1.80739 0.986886 1.69833 1.07479 1.61792C1.1627 1.53751 1.28193 1.49233 1.40625 1.49233H22.0312C22.1556 1.49233 22.2748 1.53751 22.3627 1.61792C22.4506 1.69833 22.5 1.80739 22.5 1.92111V13.927ZM23.4375 18.2148C23.4375 18.3286 23.3881 18.4376 23.3002 18.518C23.2123 18.5985 23.0931 18.6436 22.9688 18.6436H0.46875C0.34443 18.6436 0.225201 18.5985 0.137294 18.518C0.0493861 18.4376 0 18.3286 0 18.2148C0 18.1011 0.0493861 17.9921 0.137294 17.9117C0.225201 17.8312 0.34443 17.7861 0.46875 17.7861H22.9688C23.0931 17.7861 23.2123 17.8312 23.3002 17.9117C23.3881 17.9921 23.4375 18.1011 23.4375 18.2148Z" fill="#FF7A00"/>
</svg>
